<svg width="115" height="54" viewBox="0 0 115 54" fill="none" xmlns="http://www.w3.org/2000/svg">
<path d="M35.6562 9.9801L35.1562 10.5739C33.0312 13.178 31.3438 16.1676 30.0938 19.5426C29.8854 19.0634 29.7292 18.7093 29.625 18.4801C28.4792 15.9801 27.25 14.3655 25.9375 13.6364C24.625 12.9072 22.2708 12.5426 18.875 12.5426C17.3125 12.5426 15.4375 12.5947 13.25 12.6989V27.0739H15.25V14.3551C16.8333 14.2093 18.3438 14.1364 19.7812 14.1364C22.4271 14.1364 24.375 14.4176 25.625 14.9801C26.875 15.5426 27.9896 16.6364 28.9688 18.2614C28.6771 18.053 28.4688 17.8968 28.3438 17.7926C26.6562 16.4593 25.4375 15.6676 24.6875 15.4176C23.9375 15.1676 22.4583 15.0426 20.25 15.0426C19.5833 15.0426 18.3958 15.0843 16.6875 15.1676L16.0312 15.1989V27.0739H21.7812L25.8125 21.5426V35.0114L21.7812 29.7926H13.25V47.3239H15.25V31.2614H22.0312L22.8438 32.0739H16.0312V47.3239C20.2812 47.3239 23.3021 47.0218 25.0938 46.4176C26.8854 45.8134 28.2917 44.6259 29.3125 42.8551L30.9688 40.0114C31.0312 39.8864 31.1562 39.6572 31.3438 39.3239C31.8854 41.6155 32.5521 43.4489 33.3438 44.8239C34.1562 46.1989 35.4896 47.803 37.3438 49.6364H2.3125L7.0625 46.0114V32.0739C5.3125 32.2822 3.72917 32.8239 2.3125 33.6989L1.875 33.0426C3.14583 32.1259 4.875 31.5322 7.0625 31.2614V29.7926C6.70833 29.7509 6.45833 29.7301 6.3125 29.7301C4.1875 29.7301 2.25 30.5114 0.5 32.0739C1.45833 28.7405 3.64583 27.0739 7.0625 27.0739V13.7301L2.3125 9.9801H35.6562ZM37.1562 12.1676L36.9375 12.4489C34.3958 15.8655 32.6979 18.7301 31.8438 21.0426L31.3125 20.3864C32.7083 17.1572 34.5104 14.1989 36.7188 11.5114L37.1562 12.1676ZM27.9688 22.5739V36.3864L27.1875 35.9801V22.1676L27.9688 22.5739ZM40.9062 49.8239L39.2812 52.6364H5.15625L4.65625 51.7926H38.875L39.9375 49.8239C36.9375 47.053 34.8229 44.0947 33.5938 40.9489L34.5938 41.3239C35.7396 43.9905 37.6771 46.6572 40.4062 49.3239L40.9062 49.8239ZM83.3125 0.105103L83.6562 0.448853C80.9271 3.07385 78.6979 5.88635 76.9688 8.88635C75.2396 11.8864 73.1667 16.5739 70.75 22.9489L61.625 46.8239L65.3438 50.0739H50.9375L55.0625 46.6676L43.625 14.1051L38.8125 9.9801H54.3125L49.9062 14.3864L60.2188 43.7301L61.4375 40.8239L52.2188 14.8239L55.4062 11.6676L55.9688 12.2614L53.1875 15.0114L61.8438 39.7301L68.4688 22.0426C70.4479 16.7926 71.4375 13.1155 71.4375 11.0114C71.4375 8.88635 70.6562 7.06344 69.0938 5.5426L69.6875 5.4176C75.75 4.25094 80.2917 2.4801 83.3125 0.105103ZM85 2.01135L85.2812 2.7301C81.3021 5.83427 77.1979 12.9176 72.9688 23.9801L64.1562 46.9489L69.0312 52.6364H52.9062L52.2188 51.7926H67.1875L63.25 47.1676L72.2188 23.7614L73.9062 19.3239C75.4062 15.4905 77.1771 11.9905 79.2188 8.82385C81.2604 5.63635 83.1875 3.36552 85 2.01135ZM110.625 10.3239C109.542 11.7822 108.677 13.303 108.031 14.8864C106.76 18.0114 105.917 19.928 105.5 20.6364L105.344 20.8239C105.26 20.5947 105.198 20.4176 105.156 20.2926C104.573 18.4176 104.094 17.1155 103.719 16.3864C103.344 15.6572 102.781 14.9593 102.031 14.2926C100.135 12.6051 97.9792 11.7614 95.5625 11.7614C93.3333 11.7614 91.4792 12.3864 90 13.6364C88.5208 14.8655 87.7812 16.4176 87.7812 18.2926C87.7812 21.7926 90.4167 24.178 95.6875 25.4489L100.969 26.7301C108.49 28.5426 112.25 32.5114 112.25 38.6364C112.25 42.053 110.958 44.928 108.375 47.2614C105.812 49.5739 102.635 50.7301 98.8438 50.7301C96.4688 50.7301 93.8125 50.3655 90.875 49.6364L87.2188 48.7301C85.7396 48.3759 84.5208 48.1989 83.5625 48.1989C82.2917 48.1989 80.9792 48.6051 79.625 49.4176L79.375 48.9801C81.9583 45.0843 83.7708 41.3759 84.8125 37.8551L85.375 38.0114C85.8125 41.2822 87.125 43.8239 89.3125 45.6364C91.5 47.4489 94.3646 48.3551 97.9062 48.3551C100.698 48.3551 102.917 47.7093 104.562 46.4176C106.208 45.1259 107.031 43.3864 107.031 41.1989C107.031 38.678 105.885 36.5947 103.594 34.9489C101.948 33.7822 98.5729 32.6989 93.4688 31.6989C89.5312 30.928 86.6771 29.6468 84.9062 27.8551C83.1354 26.0634 82.25 23.5739 82.25 20.3864C82.25 17.0947 83.4271 14.428 85.7812 12.3864C88.1562 10.3239 91.2396 9.2926 95.0312 9.2926C97.4688 9.2926 100.312 9.7301 103.562 10.6051C105.083 11.0218 106.208 11.2301 106.938 11.2301C107.958 11.2301 109.073 10.8759 110.281 10.1676L110.625 10.3239ZM112.562 11.6364L112.281 12.1051C111.427 13.5426 110.698 14.9176 110.094 16.2301C108.635 19.2926 107.812 21.0009 107.625 21.3551L107.469 21.5739L106.719 21.2614L106.844 20.9801C107.448 19.6051 108.323 17.8134 109.469 15.6051L111.594 11.4801L111.75 11.2301L112.562 11.6364ZM103.438 17.8551C101.146 15.4176 98.6875 14.1989 96.0625 14.1989C94.4792 14.1989 93.1667 14.6572 92.125 15.5739C91.0833 16.4905 90.5625 17.6572 90.5625 19.0739C90.5625 20.6155 91.6146 22.1989 93.7188 23.8239L93.9688 23.9801L93.8125 24.2301C91.0625 23.0009 89.6875 21.2197 89.6875 18.8864C89.6875 17.2614 90.2708 15.9384 91.4375 14.9176C92.6042 13.8968 94.125 13.3864 96 13.3864C97.7917 13.3864 99.3542 13.7718 100.688 14.5426C102.042 15.2926 103.031 16.3551 103.656 17.7301L103.438 17.8551ZM110.625 30.2614C113.458 32.4072 114.875 35.3447 114.875 39.0739C114.875 43.053 113.333 46.428 110.25 49.1989C107.167 51.9489 103.417 53.3239 99 53.3239C96.75 53.3239 94.7188 53.0947 92.9062 52.6364L87.9062 51.4176C86.7396 51.1259 85.4896 50.9801 84.1562 50.9801C82.9688 50.9801 81.875 51.2197 80.875 51.6989L80.5 50.7926C81.5833 50.2926 82.6875 50.0426 83.8125 50.0426C85.0625 50.0426 86.4896 50.2301 88.0938 50.6051L92.9062 51.7614C94.8229 52.2197 96.8438 52.4489 98.9688 52.4489C103.135 52.4489 106.677 51.1259 109.594 48.4801C112.531 45.8134 114 42.5947 114 38.8239C114 35.6364 112.875 32.8447 110.625 30.4489V30.2614ZM88.375 39.2614C89.1458 43.0114 91.2083 45.6676 94.5625 47.2301V47.4801C90.6875 46.3551 88.3438 43.6676 87.5312 39.4176L88.375 39.2614ZM84.4688 29.1364L85.5312 29.7301C86.2188 30.9593 88.2292 31.9801 91.5625 32.7926L96.5938 34.0426C100.01 34.8968 102.281 35.6364 103.406 36.2614C104.552 36.8655 105.365 37.7926 105.844 39.0426L105.625 39.1676C104.688 38.0843 103.667 37.2926 102.562 36.7926C101.479 36.2926 99.3854 35.678 96.2812 34.9489C91.7812 33.9072 88.7604 33.0114 87.2188 32.2614C85.6771 31.4905 84.7604 30.4489 84.4688 29.1364Z" fill="#276221"/>
</svg>
