<svg width="24" height="20" viewBox="0 0 24 20" fill="none" xmlns="http://www.w3.org/2000/svg">
<path d="M9.46992 12.7333C9.27992 12.7333 9.08992 12.6749 8.93992 12.5499C8.11992 11.8666 7.66992 10.9583 7.66992 9.99993C7.66992 8.00827 9.60992 6.3916 11.9999 6.3916C13.1499 6.3916 14.2399 6.7666 15.0599 7.44993C15.1999 7.5666 15.2799 7.72494 15.2799 7.8916C15.2799 8.05827 15.1999 8.2166 15.0599 8.33327L9.99992 12.5499C9.84992 12.6749 9.65992 12.7333 9.46992 12.7333ZM11.9999 7.6416C10.4399 7.6416 9.16992 8.69993 9.16992 9.99993C9.16992 10.4166 9.29992 10.8166 9.53992 11.1666L13.3999 7.94993C12.9799 7.74993 12.4999 7.6416 11.9999 7.6416Z" fill="#0C0908" fill-opacity="0.4"/>
<path d="M5.60009 15.4251C5.43009 15.4251 5.25009 15.3751 5.11009 15.2751C4.04009 14.5167 3.08009 13.5834 2.26009 12.5001C1.20009 11.1251 1.20009 8.8834 2.26009 7.50006C4.70009 4.31673 8.25009 2.4834 12.0001 2.4834C14.2001 2.4834 16.3701 3.11673 18.2701 4.3084C18.6001 4.51673 18.6701 4.9084 18.4201 5.1834C18.1701 5.4584 17.7001 5.51673 17.3701 5.3084C15.7301 4.27506 13.8701 3.7334 12.0001 3.7334C8.77009 3.7334 5.68009 5.35007 3.52009 8.17507C2.77009 9.15007 2.77009 10.8501 3.52009 11.8251C4.27009 12.8001 5.13009 13.6417 6.08009 14.3251C6.39009 14.5501 6.43009 14.9417 6.16009 15.2084C6.02009 15.3501 5.81009 15.4251 5.60009 15.4251Z" fill="#0C0908" fill-opacity="0.4"/>
<path d="M12.0001 17.5166C10.6701 17.5166 9.37006 17.2916 8.12006 16.8499C7.74006 16.7166 7.56006 16.3499 7.72006 16.0332C7.88006 15.7166 8.32006 15.5666 8.70006 15.6999C9.76006 16.0749 10.8701 16.2666 11.9901 16.2666C15.2201 16.2666 18.3101 14.6499 20.4701 11.8249C21.2201 10.8499 21.2201 9.14992 20.4701 8.17492C20.1601 7.76658 19.8201 7.37492 19.4601 7.00825C19.2001 6.74158 19.2501 6.34992 19.5701 6.12492C19.8901 5.90825 20.3601 5.94158 20.6301 6.21658C21.0201 6.61658 21.4001 7.04992 21.7401 7.49992C22.8001 8.87492 22.8001 11.1166 21.7401 12.4999C19.3001 15.6833 15.7501 17.5166 12.0001 17.5166Z" fill="#0C0908" fill-opacity="0.4"/>
<path d="M12.6901 13.5581C12.3401 13.5581 12.0201 13.3498 11.9501 13.0498C11.8701 12.7081 12.1401 12.3831 12.5501 12.3248C13.6501 12.1581 14.5701 11.3915 14.7701 10.4748C14.8501 10.1331 15.2401 9.91647 15.6501 9.9748C16.0601 10.0415 16.3301 10.3665 16.2501 10.7081C15.9301 12.1498 14.5501 13.2915 12.8301 13.5581C12.7801 13.5498 12.7401 13.5581 12.6901 13.5581Z" fill="#0C0908" fill-opacity="0.4"/>
<path d="M1.99994 18.9583C1.80994 18.9583 1.61994 18.8999 1.46994 18.7749C1.17994 18.5333 1.17994 18.1333 1.46994 17.8916L8.93994 11.6666C9.22994 11.4249 9.70994 11.4249 9.99994 11.6666C10.2899 11.9083 10.2899 12.3083 9.99994 12.5499L2.52994 18.7749C2.37994 18.8999 2.18994 18.9583 1.99994 18.9583Z" fill="#0C0908" fill-opacity="0.4"/>
<path d="M14.53 8.51686C14.34 8.51686 14.15 8.45853 14 8.33353C13.71 8.09186 13.71 7.69186 14 7.4502L21.47 1.2252C21.76 0.983529 22.24 0.983529 22.53 1.2252C22.82 1.46686 22.82 1.86686 22.53 2.10853L15.06 8.33353C14.91 8.45853 14.72 8.51686 14.53 8.51686Z" fill="#0C0908" fill-opacity="0.4"/>
</svg>
